# This file uses centimeters as units for non-parametric coordinates.

mtllib ConstellationPlane.mtl
g default
v -24.195383 -24.278332 291.995178
v 24.195440 -24.278332 291.995178
v -24.195383 24.278332 291.995178
v 24.195440 24.278332 291.995178
vt 1.000000 -0.000000
vt 1.000000 1.000000
vt 0.000000 1.000000
vt -0.000000 0.000000
vn 0.000000 0.000000 -1.000000
vn 0.000000 0.000000 -1.000000
vn 0.000000 0.000000 -1.000000
vn 0.000000 0.000000 -1.000000
s off
g ConstellationPlane:pSphere1
usemtl initialShadingGroup
f 1/1/1 3/2/2 4/3/3 2/4/4
